<?xml version="1.0" encoding="utf-8"?>
<!-- Generator: Adobe Illustrator 26.0.3, SVG Export Plug-In . SVG Version: 6.00 Build 0)  -->
<svg version="1.1" xmlns="http://www.w3.org/2000/svg" xmlns:xlink="http://www.w3.org/1999/xlink" x="0px" y="0px"
	 viewBox="0 0 1280 720" style="enable-background:new 0 0 1280 720;" xml:space="preserve">
<style type="text/css">
	.st0{clip-path:url(#SVGID_00000010270726210929991010000011576169513914235828_);fill:#1D1D1B;fill-opacity:0.45;}
</style>
<g id="Layer_1">
	<g>
		<defs>
			<rect id="SVGID_1_" width="1280" height="720"/>
		</defs>
		<clipPath id="SVGID_00000084519770788468953810000012924216140977356167_">
			<use xlink:href="#SVGID_1_"  style="overflow:visible;"/>
		</clipPath>
		<path style="clip-path:url(#SVGID_00000084519770788468953810000012924216140977356167_);fill:#1D1D1B;fill-opacity:0.45;" d="
			M-152.3,882.2c-112.4-191.3-63.2-513.9,224.8-501.9c300.6,46.4,348.3,267.1,282.6,395.3C289.6,903.8,24.3,1181.2-152.3,882.2z"/>
		<path style="clip-path:url(#SVGID_00000084519770788468953810000012924216140977356167_);fill:#1D1D1B;fill-opacity:0.45;" d="
			M842.8,266.8C706.1,133.5,765.9-91.2,1116.1-82.8c365.4,32.3,423.3,186.1,343.6,275.3C1379.9,281.8,1057.4,475.1,842.8,266.8z"/>
		<path style="clip-path:url(#SVGID_00000084519770788468953810000012924216140977356167_);fill:#1D1D1B;fill-opacity:0.45;" d="
			M1158.9,659c6.6-34.7-16.2-68.2-50.9-74.8c-34.7-6.6-68.2,16.2-74.8,50.9L1158.9,659z M920.1,915.4c-0.4,0.5,1.4-1.4,8.4-6.2
			c6.5-4.4,14.6-9.5,25-16.1c20.1-12.5,46.8-29,73.4-48.7c51.6-38.3,115.3-97.9,132-185.4L1033.1,635
			c-7.3,38.5-37.6,73.2-82.5,106.6c-21.7,16.1-43.8,29.8-64.8,42.9c-17.3,10.8-42.5,26.1-57.9,42.1L920.1,915.4z"/>
	</g>
</g>
<g id="Layer_2">
</g>
</svg>
