<svg id="Layer_1" data-name="Layer 1" xmlns="http://www.w3.org/2000/svg" xmlns:xlink="http://www.w3.org/1999/xlink" viewBox="0 0 1699 1099"><defs><style>.cls-1{fill:none;}.cls-2{clip-path:url(#clip-path);}.cls-3{fill:#a1bdf9;fill-opacity:0.45;}</style><clipPath id="clip-path" transform="translate(208 83)"><rect class="cls-1" width="1280" height="720"/></clipPath></defs><g class="cls-2"><path class="cls-3" d="M842.75,266.79c-136.61-133.26-76.87-358,273.33-349.56,365.36,32.34,423.34,186.05,343.57,275.32S1057.38,475.1,842.75,266.79Z" transform="translate(208 83)"/><path class="cls-3" d="M-152.26,882.18C-264.65,690.87-215.5,368.29,72.58,380.33,373.14,426.77,420.83,647.44,355.21,775.6S24.3,1181.25-152.26,882.18Z" transform="translate(208 83)"/><path class="cls-3" d="M1158.87,659A64,64,0,1,0,1033.13,635ZM920.12,915.38c-.45.46,1.39-1.4,8.4-6.21,6.46-4.43,14.58-9.55,25-16.06,20.05-12.52,46.78-29,73.37-48.73,51.57-38.3,115.29-97.91,132-185.41L1033.13,635c-7.33,38.5-37.61,73.23-82.54,106.59-21.67,16.09-43.81,29.79-64.82,42.9-17.29,10.79-42.51,26.12-57.89,42.1Z" transform="translate(208 83)"/></g></svg>